<svg width="582" height="327" viewBox="0 0 582 327" fill="none" xmlns="http://www.w3.org/2000/svg">
<path d="M3.44482 13.6422H8.90171V132.867H47.2653V137.662H3.44482V13.6422Z" fill="#F9F3E6"/>
<path d="M134.647 140.97C123.071 140.97 112.323 137.938 102.401 131.875C92.4797 125.812 84.5975 117.764 78.7548 107.732C73.0223 97.5901 70.1561 86.7314 70.1561 75.1562C70.1561 63.6912 73.0774 52.9979 78.9202 43.0763C84.7629 33.0444 92.6451 25.1071 102.567 19.2644C112.488 13.3114 123.237 10.335 134.812 10.335C146.497 10.335 157.246 13.2563 167.057 19.0991C176.869 24.9418 184.64 32.8791 190.373 42.9109C196.216 52.8326 199.137 63.581 199.137 75.1562C199.137 87.0621 196.216 98.0862 190.373 108.228C184.64 118.26 176.813 126.253 166.892 132.205C157.08 138.048 146.332 140.97 134.647 140.97ZM134.647 136.174C145.23 136.174 155.041 133.473 164.081 128.071C173.12 122.559 180.286 115.173 185.578 105.913C190.979 96.5428 193.68 86.4007 193.68 75.4869C193.68 64.6834 191.034 54.6515 185.743 45.3913C180.451 36.1312 173.286 28.8002 164.246 23.3984C155.206 17.8864 145.395 15.1304 134.812 15.1304C124.119 15.1304 114.252 17.8864 105.212 23.3984C96.1727 28.8002 88.952 36.1312 83.5502 45.3913C78.2587 54.6515 75.613 64.6834 75.613 75.4869C75.613 86.4007 78.2587 96.5428 83.5502 105.913C88.952 115.173 96.1727 122.559 105.212 128.071C114.252 133.473 124.064 136.174 134.647 136.174Z" fill="#F9F3E6"/>
<path d="M265.781 139.977C252.001 139.977 241.308 134.3 233.701 122.945V114.016C236.678 120.63 240.977 125.812 246.599 129.56C252.332 133.308 259.167 135.182 267.104 135.182C272.616 135.182 277.687 133.969 282.317 131.544C287.057 129.119 290.806 125.701 293.562 121.292C296.318 116.882 297.696 111.811 297.696 106.079C297.696 100.897 296.814 96.4326 295.05 92.6844C293.286 88.9362 290.365 85.3534 286.286 81.936C282.207 78.4083 276.309 74.2743 268.592 69.5339L263.301 66.2267C258.45 63.2503 254.537 60.6045 251.56 58.2894C248.584 55.9744 245.993 53.2735 243.788 50.1868C240.922 45.8874 239.489 40.9266 239.489 35.3044C239.489 27.808 241.914 21.9653 246.765 17.7762C251.615 13.5871 257.789 11.4925 265.285 11.4925C275.427 11.4925 283.475 15.2407 289.428 22.737V31.1704C286.892 26.5403 283.42 22.9023 279.01 20.2566C274.6 17.6108 269.75 16.2879 264.458 16.2879C258.946 16.2879 254.316 17.9967 250.568 21.4141C246.82 24.8315 244.946 29.4065 244.946 35.139C244.946 40.7613 246.654 45.6118 250.072 49.6907C253.6 53.6594 259.497 58.0139 267.765 62.7542C277.908 68.7071 285.79 74.1089 291.412 78.9595C295.381 82.5974 298.247 86.6212 300.011 91.0308C301.885 95.4404 302.822 100.346 302.822 105.748C302.822 112.583 301.223 118.591 298.026 123.772C294.829 128.953 290.42 132.977 284.798 135.843C279.175 138.599 272.837 139.977 265.781 139.977Z" fill="#F9F3E6"/>
<path d="M351.832 18.4376H323.224V13.6422H385.565V18.4376H357.289V137.662H351.832V18.4376Z" fill="#F9F3E6"/>
<path fill-rule="evenodd" clip-rule="evenodd" d="M0 10.1973H12.3469V129.422H50.7105V141.108H0V10.1973ZM8.9019 132.867V13.6423H3.44501V137.663H47.2655V132.867H8.9019ZM75.7559 109.428C69.7331 98.7718 66.7113 87.3297 66.7113 75.1564C66.7113 63.0767 69.7971 51.7827 75.9474 41.3358C82.0819 30.8056 90.38 22.446 100.807 16.3032C111.261 10.0337 122.618 6.89014 134.812 6.89014C147.103 6.89014 158.463 9.97142 168.82 16.1393C179.142 22.2861 187.331 30.6505 193.353 41.1829C199.502 51.6318 202.582 62.9776 202.582 75.1564C202.582 87.6533 199.509 99.2704 193.361 109.944C187.335 120.486 179.09 128.905 168.664 135.16L168.655 135.166C158.297 141.334 146.938 144.415 134.647 144.415C122.435 144.415 111.065 141.207 100.605 134.815C90.1969 128.454 81.9087 119.992 75.7781 109.466L75.7559 109.428ZM190.373 108.228C196.216 98.0863 199.137 87.0623 199.137 75.1564C199.137 63.5812 196.216 52.8327 190.373 42.9111C184.641 32.8793 176.869 24.942 167.057 19.0992C157.246 13.2565 146.498 10.3351 134.812 10.3351C123.237 10.3351 112.488 13.3116 102.567 19.2646C92.6453 25.1073 84.7631 33.0446 78.9203 43.0765C73.0776 52.9981 70.1563 63.6914 70.1563 75.1564C70.1563 86.7316 73.0225 97.5903 78.755 107.732C84.5977 117.764 92.4799 125.812 102.402 131.875C112.323 137.938 123.072 140.97 134.647 140.97C146.332 140.97 157.081 138.048 166.892 132.206C176.814 126.253 184.641 118.26 190.373 108.228ZM164.246 23.3986C155.207 17.8866 145.395 15.1306 134.812 15.1306C124.119 15.1306 114.252 17.8866 105.213 23.3986C96.1729 28.8004 88.9522 36.1314 83.5504 45.3915C78.2589 54.6517 75.6131 64.6836 75.6131 75.4871C75.6131 86.4009 78.2589 96.543 83.5504 105.913C88.9522 115.174 96.1729 122.56 105.213 128.072C114.252 133.473 124.064 136.174 134.647 136.174C145.23 136.174 155.041 133.473 164.081 128.072C173.121 122.56 180.286 115.174 185.578 105.913C190.98 96.543 193.68 86.4009 193.68 75.4871C193.68 64.6836 191.035 54.6517 185.743 45.3915C180.452 36.1314 173.286 28.8004 164.246 23.3986ZM162.301 125.122C170.833 119.916 177.584 112.958 182.587 104.204L182.593 104.193C187.69 95.3506 190.235 85.8027 190.235 75.4871C190.235 65.2749 187.742 55.8333 182.752 47.1007C177.75 38.348 171.004 31.4497 162.479 26.3558L162.453 26.3401C153.953 21.1573 144.762 18.5756 134.812 18.5756C124.745 18.5756 115.5 21.1608 107.006 26.3399L106.98 26.356C98.4532 31.4511 91.6469 38.3536 86.5337 47.1144C81.5489 55.8432 79.0582 65.2803 79.0582 75.4871C79.0582 85.8077 81.5508 95.358 86.5381 104.198C91.6516 112.957 98.4603 119.917 106.993 125.122C115.492 130.198 124.688 132.729 134.647 132.729C144.606 132.729 153.802 130.198 162.301 125.122ZM230.256 123.993V114.016L236.843 112.602C239.572 118.666 243.46 123.323 248.497 126.685C253.582 130.006 259.734 131.737 267.104 131.737C272.091 131.737 276.609 130.645 280.719 128.493L280.748 128.477C284.948 126.329 288.223 123.334 290.641 119.466C293.02 115.659 294.251 111.234 294.251 106.079C294.251 101.281 293.434 97.3406 291.933 94.1514C290.434 90.965 287.874 87.7613 284.074 84.5768L284.053 84.5595L284.032 84.5418C280.157 81.1903 274.438 77.1683 266.789 72.4695L266.767 72.4556L261.499 69.1632C261.495 69.1608 261.491 69.1583 261.487 69.1559C256.582 66.1456 252.556 63.4286 249.445 61.009C246.204 58.4882 243.382 55.5454 240.985 52.1893L240.953 52.1441L240.922 52.0979C237.645 47.1827 236.044 41.5444 236.044 35.3045C236.044 26.9947 238.774 20.1261 244.513 15.1691C250.093 10.3501 257.11 8.04766 265.285 8.04766C276.406 8.04766 285.476 12.2206 292.126 20.5948L292.873 21.5357V31.1705L286.406 32.8252C284.156 28.7165 281.109 25.5334 277.238 23.2108C273.38 20.8959 269.145 19.7331 264.458 19.7331C259.724 19.7331 255.946 21.1734 252.889 23.96C249.954 26.6362 248.391 30.236 248.391 35.1392C248.391 39.9837 249.835 44.0263 252.681 47.4401C255.843 50.9835 261.349 55.1046 269.479 59.7657L269.51 59.7832C279.74 65.7883 287.819 71.31 293.663 76.3513L293.702 76.3851L293.74 76.4202C298.029 80.3513 301.214 84.7805 303.196 89.7166C305.263 94.5945 306.267 99.9552 306.267 105.748C306.267 113.141 304.531 119.792 300.958 125.581C297.417 131.32 292.526 135.771 286.362 138.913L286.338 138.925L286.314 138.937C280.163 141.952 273.295 143.423 265.781 143.423C250.864 143.423 239.092 137.182 230.839 124.863L230.256 123.993ZM250.072 49.6909C246.655 45.612 244.946 40.7614 244.946 35.1392C244.946 29.4067 246.82 24.8317 250.568 21.4143C254.316 17.9968 258.946 16.2881 264.458 16.2881C269.75 16.2881 274.601 17.611 279.01 20.2568C281.677 21.857 284.001 23.8201 285.983 26.1462C287.278 27.666 288.426 29.3408 289.428 31.1705V22.7372C283.475 15.2408 275.427 11.4927 265.285 11.4927C257.789 11.4927 251.616 13.5872 246.765 17.7764C241.914 21.9655 239.489 27.8082 239.489 35.3045C239.489 40.9268 240.922 45.8876 243.788 50.187C245.993 53.2737 248.584 55.9746 251.56 58.2896C254.537 60.6047 258.45 63.2504 263.301 66.2269L268.592 69.5341C276.309 74.2745 282.207 78.4085 286.286 81.9361C290.365 85.3536 293.286 88.9364 295.05 92.6846C296.814 96.4327 297.696 100.897 297.696 106.079C297.696 111.811 296.318 116.882 293.562 121.292C290.806 125.702 287.058 129.119 282.317 131.544C277.687 133.97 272.616 135.182 267.104 135.182C259.167 135.182 252.332 133.308 246.6 129.56C242.865 127.07 239.714 123.948 237.146 120.193C235.849 118.296 234.701 116.237 233.701 114.016V122.946C241.308 134.3 252.001 139.978 265.781 139.978C272.837 139.978 279.176 138.6 284.798 135.844C290.42 132.977 294.83 128.954 298.027 123.772C301.224 118.591 302.822 112.583 302.822 105.748C302.822 100.346 301.885 95.4406 300.011 91.031C298.247 86.6214 295.381 82.5976 291.412 78.9597C285.79 74.1091 277.908 68.7073 267.766 62.7544C259.498 58.014 253.6 53.6595 250.072 49.6909ZM319.78 21.8828V10.1973H389.01V21.8828H360.734V141.108H348.387V21.8828H319.78ZM351.832 18.4378V137.663H357.289V18.4378H385.565V13.6423H323.225V18.4378H351.832Z" fill="#444C5C"/>
<path d="M134.989 140.97C123.414 140.97 112.665 137.938 102.744 131.875C92.8222 125.812 84.94 117.764 79.0973 107.732C73.3648 97.5901 70.4985 86.7314 70.4985 75.1562C70.4985 63.6912 73.4199 52.9979 79.2626 43.0763C85.1054 33.0444 92.9875 25.1071 102.909 19.2644C112.831 13.3114 123.579 10.335 135.154 10.335C146.84 10.335 157.588 13.2563 167.4 19.0991C177.211 24.9418 184.983 32.8791 190.715 42.9109C196.558 52.8326 199.48 63.581 199.48 75.1562C199.48 87.0621 196.558 98.0862 190.715 108.228C184.983 118.26 177.156 126.253 167.234 132.205C157.423 138.048 146.674 140.97 134.989 140.97ZM134.989 136.174C145.572 136.174 155.383 133.473 164.423 128.071C173.463 122.559 180.628 115.173 185.92 105.913C191.322 96.5428 194.023 86.4007 194.023 75.4869C194.023 64.6834 191.377 54.6515 186.085 45.3913C180.794 36.1312 173.628 28.8002 164.589 23.3984C155.549 17.8864 145.737 15.1304 135.154 15.1304C124.461 15.1304 114.595 17.8864 105.555 23.3984C96.5152 28.8002 89.2945 36.1312 83.8927 45.3913C78.6012 54.6515 75.9554 64.6834 75.9554 75.4869C75.9554 86.4007 78.6012 96.5428 83.8927 105.913C89.2945 115.173 96.5152 122.559 105.555 128.071C114.595 133.473 124.406 136.174 134.989 136.174Z" fill="#F9F3E6"/>
<path fill-rule="evenodd" clip-rule="evenodd" d="M70.1329 112.876L70.1 112.818C63.4966 101.135 60.1636 88.5257 60.1636 75.1562C60.1636 61.8469 63.5785 49.3512 70.3445 37.8534C77.0624 26.327 86.1919 17.1233 97.6283 10.3804C109.147 3.47781 121.721 0 135.154 0C148.656 0 161.238 3.40111 172.688 10.2194C184.03 16.9738 193.052 26.1918 199.655 37.7246C206.416 49.2285 209.815 61.7695 209.815 75.1562C209.815 88.8341 206.437 101.636 199.68 113.371C193.068 124.936 183.985 134.208 172.552 141.068L172.522 141.085C161.073 147.904 148.491 151.305 134.989 151.305C121.503 151.305 108.891 147.744 97.3547 140.694C85.9733 133.738 76.8731 124.449 70.1666 112.934L70.1329 112.876ZM190.532 108.548C190.593 108.442 190.654 108.335 190.716 108.228C196.504 98.1802 199.425 87.2664 199.479 75.487C199.479 75.3768 199.48 75.2666 199.48 75.1562C199.48 63.581 196.558 52.8326 190.716 42.911C190.692 42.8694 190.668 42.8279 190.644 42.7864C184.919 32.8134 177.17 24.9176 167.4 19.0991C167.353 19.0715 167.307 19.044 167.261 19.0165C167.247 19.0087 167.234 19.0009 167.221 18.9931C157.458 13.221 146.769 10.335 135.154 10.335C123.629 10.335 112.924 13.2857 103.038 19.1871C103.026 19.1946 103.013 19.2021 103.001 19.2096C102.97 19.2279 102.94 19.2462 102.909 19.2645C93.0826 25.0513 85.2566 32.8927 79.4311 42.7887C79.4233 42.802 79.4155 42.8152 79.4077 42.8285C79.3592 42.911 79.3109 42.9936 79.2627 43.0764C73.42 52.998 70.4986 63.6913 70.4986 75.1562C70.4986 75.2666 70.4989 75.3768 70.4994 75.487C70.5535 86.9384 73.4195 97.6868 79.0973 107.732C79.2274 107.956 79.3585 108.178 79.4906 108.399C79.5027 108.42 79.5148 108.44 79.5269 108.46C85.3243 118.154 93.0633 125.959 102.744 131.875C102.863 131.948 102.983 132.021 103.103 132.093C103.115 132.1 103.127 132.107 103.139 132.114C112.951 138.018 123.567 140.97 134.989 140.97C146.575 140.97 157.239 138.098 166.983 132.355C166.995 132.347 167.008 132.34 167.021 132.332C167.092 132.29 167.163 132.248 167.234 132.206C177.044 126.319 184.807 118.44 190.521 108.566C190.525 108.56 190.528 108.554 190.532 108.548ZM164.665 127.923C164.67 127.92 164.674 127.918 164.679 127.915C173.598 122.42 180.679 115.086 185.92 105.913C185.982 105.807 186.043 105.7 186.104 105.593C186.107 105.588 186.11 105.582 186.113 105.577C191.386 96.3001 194.023 86.2702 194.023 75.487C194.023 75.3766 194.022 75.2664 194.022 75.1562C193.969 64.5502 191.358 54.69 186.19 45.5758C186.179 45.5559 186.168 45.536 186.157 45.5161C186.133 45.4745 186.109 45.433 186.085 45.3914C180.83 36.1944 173.726 28.9004 164.773 23.5093C164.712 23.4723 164.65 23.4353 164.589 23.3985C155.549 17.8865 145.738 15.1305 135.154 15.1305C124.461 15.1305 114.595 17.8865 105.555 23.3985C105.514 23.4227 105.474 23.447 105.433 23.4713C105.422 23.4783 105.41 23.4852 105.399 23.4921C96.4321 28.8848 89.2634 36.1846 83.8928 45.3914C83.8382 45.4869 83.7839 45.5825 83.7299 45.6781C83.7258 45.6854 83.7217 45.6926 83.7177 45.6998C78.5963 54.7795 76.0092 64.5983 75.9563 75.1562C75.9558 75.2664 75.9555 75.3766 75.9555 75.487C75.9555 86.1157 78.4649 96.0126 83.4836 105.178C83.4941 105.197 83.5047 105.216 83.5152 105.235C83.6395 105.462 83.7654 105.688 83.8928 105.913C89.2238 115.052 96.3266 122.366 105.201 127.854C105.319 127.927 105.437 127.999 105.555 128.072C114.595 133.473 124.406 136.174 134.989 136.174C145.572 136.174 155.384 133.473 164.423 128.072C164.504 128.022 164.585 127.973 164.665 127.923ZM159.082 119.224C166.601 114.63 172.522 108.528 176.947 100.786L176.966 100.752C181.455 92.9658 183.688 84.6061 183.688 75.487C183.688 66.4576 181.499 58.1965 177.112 50.519C172.69 42.7811 166.781 36.7482 159.287 32.2702L159.248 32.2465L159.208 32.2225C151.788 27.6982 143.838 25.4655 135.154 25.4655C126.339 25.4655 118.337 27.7091 110.935 32.2225L110.896 32.2465L110.856 32.2702C103.356 36.752 97.3791 42.7976 92.8433 50.5589C88.4714 58.2251 86.2905 66.4732 86.2905 75.487C86.2905 84.6218 88.4772 92.9893 92.8566 100.768C97.3935 108.524 103.378 114.631 110.896 119.224C118.314 123.647 126.279 125.839 134.989 125.839C143.699 125.839 151.664 123.647 159.082 119.224Z" fill="#444C5C"/>
<path d="M135.044 93.9799C131.186 93.9799 127.603 92.9694 124.296 90.9483C120.989 88.9273 118.361 86.2447 116.414 82.9008C114.503 79.5201 113.547 75.9005 113.547 72.0421C113.547 68.2205 114.521 64.656 116.469 61.3488C118.416 58.0049 121.044 55.3591 124.351 53.4115C127.658 51.4272 131.241 50.4351 135.099 50.4351C138.994 50.4351 142.577 51.4088 145.848 53.3564C149.118 55.304 151.709 57.9498 153.62 61.2937C155.567 64.6009 156.541 68.1837 156.541 72.0421C156.541 76.0108 155.567 79.6855 153.62 83.0662C151.709 86.4101 149.1 89.0742 145.793 91.0586C142.522 93.0061 138.939 93.9799 135.044 93.9799ZM135.044 92.3815C138.572 92.3815 141.842 91.4812 144.856 89.6806C147.869 87.8432 150.257 85.3812 152.021 82.2945C153.822 79.171 154.722 75.7903 154.722 72.1524C154.722 68.5512 153.84 65.2072 152.076 62.1205C150.312 59.0338 147.924 56.5901 144.911 54.7895C141.897 52.9522 138.627 52.0335 135.099 52.0335C131.535 52.0335 128.246 52.9522 125.233 54.7895C122.22 56.5901 119.813 59.0338 118.012 62.1205C116.248 65.2072 115.366 68.5512 115.366 72.1524C115.366 75.7903 116.248 79.171 118.012 82.2945C119.813 85.3812 122.22 87.8432 125.233 89.6806C128.246 91.4812 131.517 92.3815 135.044 92.3815Z" fill="#F9F3E6"/>
<path fill-rule="evenodd" clip-rule="evenodd" d="M113.414 84.5958L113.415 84.5956C111.214 80.7013 110.103 76.4983 110.103 72.0418C110.103 67.6054 111.241 63.4401 113.496 59.6076C115.735 55.7654 118.779 52.6975 122.591 50.4499C126.43 48.149 130.622 46.9897 135.1 46.9897C139.6 46.9897 143.794 48.1234 147.611 50.3962C151.391 52.6477 154.399 55.7204 156.6 59.5648C158.854 63.3994 159.986 67.5796 159.986 72.0418C159.986 76.601 158.86 80.8684 156.608 84.7799C154.404 88.6349 151.376 91.7257 147.565 94.0123L147.555 94.0182C143.739 96.2909 139.545 97.4246 135.044 97.4246C130.549 97.4246 126.345 96.2376 122.5 93.8876C118.706 91.5692 115.672 88.4726 113.437 84.6343L113.414 84.5958ZM153.559 83.1725C153.579 83.1371 153.599 83.1015 153.62 83.0658C155.549 79.7165 156.523 76.0785 156.541 72.1521C156.541 72.1153 156.541 72.0786 156.541 72.0418C156.541 68.1834 155.567 64.6006 153.62 61.2934C153.612 61.2796 153.604 61.2657 153.596 61.2519C151.688 57.9275 149.105 55.2956 145.848 53.3561C145.832 53.3469 145.817 53.3377 145.802 53.3286C145.797 53.326 145.793 53.3234 145.788 53.3208C142.534 51.3968 138.971 50.4348 135.1 50.4348C131.258 50.4348 127.689 51.4183 124.394 53.3855C124.39 53.388 124.386 53.3905 124.382 53.393C124.371 53.399 124.361 53.4051 124.351 53.4112C121.076 55.3402 118.467 57.954 116.525 61.2527C116.522 61.2571 116.52 61.2615 116.517 61.2659C116.501 61.2934 116.485 61.3209 116.469 61.3485C114.521 64.6557 113.548 68.2202 113.548 72.0418C113.548 72.0786 113.548 72.1153 113.548 72.1521C113.566 75.9692 114.521 79.552 116.414 82.9005C116.457 82.9749 116.501 83.049 116.545 83.1228C116.549 83.1296 116.553 83.1363 116.557 83.1431C118.489 86.3744 121.069 88.9761 124.296 90.948C124.336 90.9724 124.376 90.9966 124.416 91.0207C124.42 91.0231 124.424 91.0255 124.428 91.0279C127.698 92.9957 131.237 93.9796 135.044 93.9796C138.906 93.9796 142.461 93.0224 145.709 91.108C145.713 91.1055 145.717 91.1029 145.722 91.1004C145.745 91.0864 145.769 91.0724 145.793 91.0583C149.063 89.0962 151.65 86.4696 153.555 83.1783C153.556 83.1764 153.557 83.1745 153.559 83.1725ZM152.021 82.2942C152.042 82.2586 152.062 82.223 152.083 82.1874C152.084 82.1856 152.085 82.1838 152.086 82.182C153.843 79.0898 154.722 75.7465 154.722 72.1521C154.722 72.1153 154.722 72.0785 154.722 72.0418C154.704 68.5065 153.834 65.2198 152.111 62.1817C152.108 62.175 152.104 62.1684 152.1 62.1618C152.092 62.1479 152.084 62.1341 152.076 62.1202C150.325 59.0546 147.957 56.6232 144.972 54.8262C144.952 54.8138 144.931 54.8015 144.911 54.7892C141.898 52.9519 138.627 52.0332 135.1 52.0332C131.535 52.0332 128.246 52.9519 125.233 54.7892C125.219 54.7973 125.206 54.8054 125.192 54.8135C125.189 54.8158 125.185 54.8181 125.181 54.8204C122.192 56.618 119.802 59.0513 118.012 62.1202C117.994 62.152 117.976 62.1839 117.958 62.2158C117.957 62.2182 117.955 62.2206 117.954 62.223C116.247 65.2496 115.384 68.5225 115.367 72.0418C115.367 72.0785 115.367 72.1153 115.367 72.1521C115.367 75.695 116.203 78.9939 117.876 82.0489C117.879 82.0553 117.883 82.0617 117.886 82.0681C117.928 82.1436 117.97 82.219 118.012 82.2942C119.789 85.3405 122.157 87.7784 125.115 89.6078C125.154 89.632 125.194 89.6562 125.233 89.6803C128.246 91.4808 131.517 92.3811 135.044 92.3811C138.572 92.3811 141.843 91.4808 144.856 89.6803C144.883 89.6638 144.91 89.6474 144.936 89.6309C144.938 89.6299 144.939 89.6289 144.941 89.628C147.914 87.7963 150.274 85.3517 152.021 82.2942ZM120.996 63.8427C119.538 66.3981 118.812 69.1475 118.812 72.1521C118.812 75.197 119.54 77.9862 121 80.5792C122.512 83.1643 124.507 85.2001 127.013 86.731C129.486 88.2054 132.141 88.9361 135.044 88.9361C137.948 88.9361 140.603 88.2053 143.075 86.7309C145.582 85.1998 147.556 83.1658 149.03 80.585L149.037 80.5736C150.533 77.9784 151.277 75.1918 151.277 72.1521C151.277 69.1423 150.548 66.3886 149.085 63.8294C147.612 61.2501 145.642 59.2392 143.144 57.7465L143.117 57.7307L143.117 57.7306C140.644 56.2225 137.994 55.4782 135.1 55.4782C132.161 55.4782 129.494 56.2261 127.027 57.7306L127 57.7466L127 57.7465C124.5 59.2404 122.508 61.2556 120.996 63.8427Z" fill="#444C5C"/>
<path d="M396.259 173.27C392.566 173.27 389.148 172.388 386.006 170.625C382.865 168.861 380.357 166.435 378.483 163.349C376.608 160.207 375.671 156.734 375.671 152.931C375.671 148.246 377.049 144.057 379.805 140.364C382.561 136.615 386.172 134.08 390.636 132.757C388.487 131.765 386.723 130.249 385.345 128.21C384.022 126.115 383.361 123.855 383.361 121.43C383.361 119.225 383.912 117.213 385.014 115.394C386.172 113.52 387.743 112.032 389.727 110.929C391.766 109.827 393.999 109.276 396.424 109.276C400.172 109.276 403.314 110.709 405.85 113.575V117.957C405.023 116.083 403.7 114.567 401.881 113.41C400.117 112.197 398.133 111.591 395.928 111.591C394.274 111.591 392.676 112.059 391.133 112.996C389.589 113.934 388.349 115.174 387.412 116.717C386.475 118.26 386.006 119.914 386.006 121.678C386.006 123.442 386.475 125.095 387.412 126.639C388.349 128.182 389.589 129.422 391.133 130.359C392.676 131.296 394.357 131.765 396.176 131.765H397.334V134.08H396.672C393.42 134.08 390.361 134.934 387.495 136.643C384.684 138.352 382.424 140.667 380.715 143.588C379.061 146.454 378.234 149.596 378.234 153.014C378.234 156.376 379.061 159.435 380.715 162.191C382.368 164.892 384.601 167.014 387.412 168.558C390.223 170.101 393.255 170.873 396.507 170.873C399.869 170.873 402.956 170.046 405.767 168.392C408.633 166.739 410.893 164.506 412.547 161.695C414.255 158.884 415.11 155.825 415.11 152.518V134.08H403.617V131.765H429.083V134.08H417.59V172.113H415.11V161.53C413.897 164.892 411.499 167.703 407.917 169.963C404.389 172.168 400.503 173.27 396.259 173.27Z" fill="#F9F3E6"/>
<path fill-rule="evenodd" clip-rule="evenodd" d="M375.524 165.113C373.318 161.416 372.226 157.33 372.226 152.931C372.226 147.52 373.834 142.609 377.037 138.313C378.961 135.698 381.261 133.58 383.915 131.973C383.405 131.402 382.93 130.79 382.49 130.138L382.46 130.094L382.432 130.049C380.769 127.416 379.915 124.521 379.915 121.43C379.915 118.619 380.627 115.986 382.068 113.608L382.083 113.584C383.56 111.192 385.571 109.297 388.054 107.918L388.088 107.898C390.655 106.511 393.454 105.831 396.424 105.831C401.182 105.831 405.256 107.705 408.43 111.292L409.294 112.27V117.957L402.697 119.348C402.16 118.13 401.308 117.128 400.031 116.316L399.979 116.283L399.929 116.248C398.758 115.443 397.458 115.036 395.928 115.036C394.962 115.036 393.976 115.3 392.92 115.941C391.85 116.591 391.006 117.434 390.356 118.505C389.738 119.522 389.451 120.56 389.451 121.678C389.451 122.795 389.738 123.833 390.356 124.851C391.006 125.921 391.85 126.764 392.92 127.414C393.92 128.022 394.982 128.32 396.176 128.32H432.527V137.525H421.035V175.557H411.665V171.552C411.059 172.014 410.421 172.456 409.754 172.877L409.742 172.884C405.655 175.438 401.135 176.715 396.258 176.715C391.99 176.715 387.99 175.689 384.32 173.628C380.659 171.573 377.719 168.729 375.537 165.136L375.524 165.113ZM415.11 172.112H417.59V134.08H429.082V131.765H403.617V134.08H415.11V152.517C415.11 154.546 414.788 156.482 414.145 158.324C413.876 159.095 413.55 159.85 413.168 160.588C413.133 160.656 413.098 160.723 413.062 160.791C412.93 161.039 412.791 161.285 412.646 161.529C412.613 161.585 412.58 161.64 412.546 161.695C412.269 162.166 411.975 162.62 411.665 163.059C410.305 164.975 408.621 166.58 406.612 167.876C406.609 167.878 406.606 167.88 406.604 167.882C406.331 168.057 406.052 168.227 405.767 168.392C402.956 170.045 399.869 170.872 396.506 170.872C396.424 170.872 396.341 170.872 396.258 170.871C393.1 170.832 390.151 170.061 387.412 168.557C387.349 168.523 387.287 168.488 387.225 168.453C384.501 166.919 382.331 164.832 380.715 162.191C380.689 162.148 380.663 162.105 380.638 162.062C380.635 162.057 380.632 162.051 380.628 162.045C379.032 159.327 378.234 156.317 378.234 153.013C378.234 152.986 378.234 152.958 378.234 152.931C378.248 149.545 379.074 146.431 380.715 143.588C381.063 142.991 381.435 142.42 381.83 141.874C381.833 141.87 381.837 141.865 381.841 141.86C383.378 139.739 385.262 137.999 387.494 136.643C388.003 136.339 388.518 136.063 389.04 135.813C389.119 135.775 389.198 135.738 389.277 135.702C389.934 135.398 390.601 135.138 391.277 134.919C391.608 134.813 391.942 134.716 392.278 134.629C393.544 134.303 394.844 134.122 396.176 134.086C396.341 134.082 396.506 134.08 396.672 134.08H397.333V131.765H396.176C394.877 131.765 393.648 131.526 392.489 131.048C392.193 130.926 391.902 130.788 391.616 130.635C391.453 130.548 391.292 130.456 391.132 130.359C389.653 129.461 388.452 128.284 387.53 126.829C387.516 126.807 387.502 126.784 387.487 126.761C387.462 126.721 387.437 126.68 387.412 126.638C386.475 125.095 386.006 123.441 386.006 121.678C386.006 121.595 386.007 121.512 386.009 121.43C386.05 119.802 386.495 118.27 387.343 116.832C387.346 116.826 387.35 116.819 387.354 116.812C387.373 116.78 387.392 116.749 387.412 116.717C388.305 115.246 389.473 114.051 390.917 113.13C390.925 113.125 390.933 113.12 390.941 113.115C391.004 113.075 391.068 113.035 391.132 112.996C392.676 112.059 394.274 111.591 395.928 111.591C396.094 111.591 396.26 111.594 396.424 111.601C398.431 111.686 400.25 112.289 401.881 113.41C402.06 113.524 402.235 113.641 402.404 113.762C403.007 114.193 403.549 114.667 404.03 115.184C404.787 116 405.394 116.924 405.849 117.957V113.575C405.063 112.686 404.219 111.935 403.316 111.322C403.291 111.305 403.266 111.288 403.241 111.272C401.25 109.941 398.978 109.276 396.424 109.276C396.258 109.276 396.092 109.278 395.928 109.283C393.738 109.352 391.709 109.881 389.84 110.868C389.802 110.888 389.765 110.909 389.727 110.929C387.777 112.013 386.226 113.469 385.074 115.298C385.054 115.33 385.034 115.362 385.014 115.394C383.912 117.213 383.36 119.225 383.36 121.43C383.36 121.512 383.361 121.595 383.363 121.678C383.405 123.921 384.018 126.022 385.203 127.98C385.249 128.056 385.296 128.133 385.345 128.209C385.88 129.002 386.474 129.715 387.126 130.349C387.767 130.973 388.465 131.521 389.219 131.992C389.441 132.131 389.668 132.263 389.9 132.388C390.14 132.518 390.386 132.641 390.636 132.757C390.23 132.877 389.831 133.007 389.439 133.148C389.366 133.174 389.293 133.201 389.22 133.228C388.314 133.563 387.447 133.953 386.617 134.397C386.5 134.459 386.384 134.523 386.269 134.588C386.263 134.591 386.257 134.594 386.251 134.598C383.743 136.009 381.594 137.931 379.805 140.363C379.334 140.994 378.903 141.64 378.513 142.3C378.51 142.304 378.508 142.309 378.505 142.313C376.616 145.512 375.671 149.051 375.671 152.931C375.671 152.958 375.671 152.986 375.671 153.013C375.685 156.784 376.622 160.229 378.482 163.348C378.509 163.393 378.536 163.437 378.564 163.481C378.568 163.488 378.571 163.494 378.575 163.501C380.439 166.515 382.916 168.889 386.006 170.624C386.075 170.663 386.144 170.701 386.214 170.739C389.298 172.426 392.647 173.27 396.258 173.27C396.341 173.27 396.424 173.27 396.506 173.269C400.287 173.23 403.781 172.311 406.99 170.512C406.996 170.509 407.002 170.505 407.008 170.502C407.313 170.33 407.616 170.15 407.916 169.963C409.357 169.054 410.607 168.056 411.665 166.968C412.662 165.943 413.489 164.838 414.145 163.654C414.282 163.407 414.411 163.157 414.534 162.903C414.539 162.893 414.543 162.882 414.548 162.872C414.757 162.435 414.944 161.987 415.11 161.529V172.112ZM383.693 145.318C382.355 147.641 381.679 150.183 381.679 153.013C381.679 155.776 382.349 158.213 383.661 160.405C384.996 162.581 386.782 164.281 389.07 165.537C391.365 166.798 393.825 167.427 396.506 167.427C399.274 167.427 401.755 166.755 404.02 165.423L404.045 165.408C406.403 164.047 408.23 162.238 409.577 159.948L409.59 159.927L409.603 159.905C410.982 157.637 411.665 155.197 411.665 152.517V137.525H396.672C394.062 137.525 391.615 138.2 389.271 139.594C386.972 140.995 385.119 142.884 383.693 145.318Z" fill="#444C5C"/>
<path d="M3.44482 185.893H47.596V190.688H8.90171V257.824H41.147V262.62H8.90171V309.913H3.44482V185.893Z" fill="#F9F3E6"/>
<path d="M144.013 313.22C132.437 313.22 121.689 310.188 111.767 304.125C101.846 298.062 93.9637 290.015 88.1209 279.983C82.3884 269.841 79.5222 258.982 79.5222 247.407C79.5222 235.942 82.4435 225.248 88.2863 215.327C94.129 205.295 102.011 197.358 111.933 191.515C121.854 185.562 132.603 182.585 144.178 182.585C155.864 182.585 166.612 185.507 176.423 191.35C186.235 197.192 194.007 205.13 199.739 215.161C205.582 225.083 208.503 235.831 208.503 247.407C208.503 259.313 205.582 270.337 199.739 280.479C194.007 290.511 186.18 298.503 176.258 304.456C166.447 310.299 155.698 313.22 144.013 313.22ZM144.013 308.425C154.596 308.425 164.407 305.724 173.447 300.322C182.487 294.81 189.652 287.424 194.944 278.164C200.345 268.793 203.046 258.651 203.046 247.737C203.046 236.934 200.401 226.902 195.109 217.642C189.817 208.382 182.652 201.051 173.612 195.649C164.572 190.137 154.761 187.381 144.178 187.381C133.485 187.381 123.618 190.137 114.579 195.649C105.539 201.051 98.3181 208.382 92.9164 217.642C87.6248 226.902 84.9791 236.934 84.9791 247.737C84.9791 258.651 87.6248 268.793 92.9164 278.164C98.3181 287.424 105.539 294.81 114.579 300.322C123.618 305.724 133.43 308.425 144.013 308.425Z" fill="#F9F3E6"/>
<path d="M286.392 313.22C279.226 313.22 272.832 311.732 267.21 308.755C261.588 305.669 257.178 301.314 253.981 295.692C250.784 290.07 249.186 283.51 249.186 276.014V185.893H254.643V275.849C254.643 282.463 256.021 288.251 258.777 293.211C261.533 298.062 265.281 301.81 270.021 304.456C274.872 307.102 280.273 308.425 286.226 308.425C292.179 308.425 297.526 307.157 302.266 304.621C307.117 301.976 310.865 298.227 313.511 293.377C316.267 288.416 317.645 282.573 317.645 275.849V185.893H323.102V275.683C323.102 283.29 321.558 289.959 318.472 295.692C315.385 301.314 311.03 305.669 305.408 308.755C299.896 311.732 293.557 313.22 286.392 313.22Z" fill="#F9F3E6"/>
<path d="M373.945 198.295V309.913H369.149V184.074L460.428 297.345V185.893H465.224V311.732L373.945 198.295Z" fill="#F9F3E6"/>
<path d="M511.237 185.893H516.528C536.261 185.893 551.474 191.294 562.168 202.098C572.971 212.791 578.373 228.06 578.373 247.903C578.373 259.257 575.617 269.675 570.105 279.156C564.593 288.637 557.096 296.133 547.616 301.645C538.245 307.157 527.883 309.913 516.528 309.913H511.237V185.893ZM517.851 304.787C527.993 304.787 537.253 302.306 545.631 297.345C554.01 292.274 560.624 285.384 565.475 276.675C570.435 267.966 572.916 258.376 572.916 247.903C572.916 229.603 568.12 215.547 558.53 205.736C549.049 195.814 535.489 190.853 517.851 190.853H516.528V304.787H517.851Z" fill="#F9F3E6"/>
<path fill-rule="evenodd" clip-rule="evenodd" d="M0 182.447H51.0412V194.133H12.3469V254.379H44.5922V266.065H12.3469V313.358H0V182.447ZM8.90189 262.62H41.1471V257.824H8.90189V190.688H47.5962V185.892H3.44501V309.913H8.90189V262.62ZM85.122 281.678C79.0992 271.022 76.0773 259.58 76.0773 247.407C76.0773 235.327 79.1632 224.033 85.3135 213.586C91.448 203.056 99.7461 194.696 110.173 188.553C120.627 182.284 131.984 179.14 144.178 179.14C156.469 179.14 167.829 182.222 178.186 188.389C188.508 194.536 196.697 202.901 202.72 213.433C208.868 223.882 211.948 235.228 211.948 247.407C211.948 259.903 208.875 271.521 202.727 282.194C196.701 292.736 188.456 301.155 178.031 307.41L178.021 307.416C167.663 313.584 156.304 316.665 144.013 316.665C131.801 316.665 120.431 313.457 109.971 307.065C99.563 300.704 91.2748 292.243 85.1442 281.716L85.122 281.678ZM199.739 280.479C205.582 270.336 208.503 259.312 208.503 247.407C208.503 235.831 205.582 225.083 199.739 215.161C194.007 205.129 186.235 197.192 176.423 191.349C166.612 185.507 155.864 182.585 144.178 182.585C132.603 182.585 121.855 185.562 111.933 191.515C102.011 197.357 94.1292 205.295 88.2864 215.327C82.4437 225.248 79.5224 235.942 79.5224 247.407C79.5224 258.982 82.3886 269.84 88.1211 279.982C93.9638 290.014 101.846 298.062 111.768 304.125C121.689 310.188 132.438 313.22 144.013 313.22C155.698 313.22 166.447 310.299 176.258 304.456C186.18 298.503 194.007 290.51 199.739 280.479ZM173.612 195.649C164.573 190.137 154.761 187.381 144.178 187.381C133.485 187.381 123.618 190.137 114.579 195.649C105.539 201.051 98.3183 208.381 92.9165 217.642C87.625 226.902 84.9792 236.934 84.9792 247.737C84.9792 258.651 87.625 268.793 92.9165 278.164C98.3183 287.424 105.539 294.81 114.579 300.322C123.618 305.724 133.43 308.424 144.013 308.424C154.596 308.424 164.407 305.724 173.447 300.322C182.487 294.81 189.652 287.424 194.944 278.164C200.346 268.793 203.046 258.651 203.046 247.737C203.046 236.934 200.401 226.902 195.109 217.642C189.818 208.381 182.652 201.051 173.612 195.649ZM171.667 297.372C180.199 292.167 186.95 285.209 191.953 276.454L191.959 276.443C197.057 267.601 199.601 258.053 199.601 247.737C199.601 237.525 197.108 228.083 192.118 219.351C187.117 210.598 180.37 203.7 171.845 198.606L171.819 198.59C163.319 193.407 154.128 190.826 144.178 190.826C134.111 190.826 124.866 193.411 116.372 198.59L116.346 198.606C107.819 203.701 101.013 210.604 95.8998 219.365C90.915 228.093 88.4242 237.53 88.4242 247.737C88.4242 258.058 90.9169 267.608 95.9042 276.448C101.018 285.207 107.826 292.167 116.359 297.372C124.858 302.448 134.054 304.979 144.013 304.979C153.972 304.979 163.168 302.448 171.667 297.372ZM265.575 311.788L265.552 311.775C259.366 308.379 254.496 303.566 250.987 297.395C247.45 291.176 245.741 284.011 245.741 276.014V182.447H258.088V275.848C258.088 281.968 259.358 287.157 261.78 291.524C264.23 295.831 267.523 299.113 271.686 301.44C275.988 303.783 280.811 304.979 286.227 304.979C291.669 304.979 296.444 303.826 300.629 301.59C304.893 299.261 308.16 295.993 310.487 291.727L310.499 291.704C312.923 287.342 314.2 282.096 314.2 275.848V182.447H326.547V275.683C326.547 283.764 324.904 291.012 321.505 297.325L321.492 297.35C318.09 303.546 313.263 308.373 307.066 311.775L307.045 311.787C300.962 315.071 294.046 316.665 286.392 316.665C278.736 316.665 271.777 315.071 265.598 311.8L265.575 311.788ZM302.267 304.621C297.526 307.157 292.18 308.424 286.227 308.424C280.274 308.424 274.872 307.102 270.021 304.456C265.281 301.81 261.533 298.062 258.777 293.211C256.021 288.251 254.643 282.463 254.643 275.848V185.892H249.186V276.014C249.186 283.51 250.784 290.069 253.981 295.692C257.178 301.314 261.588 305.668 267.21 308.755C272.832 311.732 279.226 313.22 286.392 313.22C293.558 313.22 299.896 311.732 305.408 308.755C311.031 305.668 315.385 301.314 318.472 295.692C321.559 289.959 323.102 283.29 323.102 275.683V185.892H317.645V275.848C317.645 282.573 316.267 288.416 313.511 293.377C310.865 298.227 307.117 301.975 302.267 304.621ZM460.428 297.345V185.892H465.224V311.732L373.945 198.295V309.913H369.15V184.074L460.428 297.345ZM377.39 208.071V313.358H365.705V174.308L456.983 287.58V182.447H468.669V321.508L377.39 208.071ZM507.792 182.447H516.528C536.887 182.447 553.086 188.034 564.603 199.661C576.234 211.181 581.818 227.439 581.818 247.903C581.818 259.843 578.912 270.862 573.083 280.887C567.273 290.881 559.35 298.805 549.357 304.617C539.435 310.453 528.466 313.358 516.528 313.358H507.792V182.447ZM547.616 301.645C557.097 296.133 564.593 288.636 570.105 279.156C575.617 269.675 578.373 259.257 578.373 247.903C578.373 228.059 572.971 212.791 562.168 202.098C551.474 191.294 536.261 185.892 516.528 185.892H511.237V309.913H516.528C527.883 309.913 538.245 307.157 547.616 301.645ZM558.53 205.736C549.433 196.216 536.581 191.263 519.973 190.878C519.273 190.861 518.565 190.853 517.851 190.853H516.528V304.787H517.851C518.563 304.787 519.27 304.774 519.973 304.75C529.288 304.426 537.841 301.958 545.632 297.345C554.01 292.274 560.624 285.384 565.475 276.675C570.436 267.966 572.916 258.375 572.916 247.903C572.916 229.603 568.121 215.547 558.53 205.736ZM543.861 294.39C551.711 289.636 557.903 283.19 562.465 274.999L562.481 274.97C567.133 266.804 569.471 257.805 569.471 247.903C569.471 230.194 564.841 217.12 556.066 208.144L556.039 208.116C547.745 199.437 535.882 194.707 519.973 194.324V301.303C528.682 300.982 536.625 298.671 543.861 294.39Z" fill="#444C5C"/>
<path d="M141.879 316.665C130.304 316.665 119.556 313.633 109.634 307.57C99.7123 301.507 91.8301 293.459 85.9874 283.427C80.2549 273.285 77.3887 262.427 77.3887 250.852C77.3887 239.387 80.31 228.693 86.1528 218.772C91.9955 208.74 99.8777 200.802 109.799 194.96C119.721 189.007 130.469 186.03 142.045 186.03C153.73 186.03 164.478 188.952 174.29 194.794C184.101 200.637 191.873 208.574 197.606 218.606C203.448 228.528 206.37 239.276 206.37 250.852C206.37 262.757 203.448 273.781 197.606 283.924C191.873 293.955 184.046 301.948 174.124 307.901C164.313 313.744 153.565 316.665 141.879 316.665ZM141.879 311.869C152.462 311.869 162.274 309.169 171.313 303.767C180.353 298.255 187.519 290.869 192.81 281.609C198.212 272.238 200.913 262.096 200.913 251.182C200.913 240.379 198.267 230.347 192.976 221.087C187.684 211.826 180.518 204.496 171.479 199.094C162.439 193.582 152.628 190.826 142.045 190.826C131.351 190.826 121.485 193.582 112.445 199.094C103.405 204.496 96.1846 211.826 90.7829 221.087C85.4913 230.347 82.8456 240.379 82.8456 251.182C82.8456 262.096 85.4913 272.238 90.7829 281.609C96.1846 290.869 103.405 298.255 112.445 303.767C121.485 309.169 131.296 311.869 141.879 311.869Z" fill="#F9F3E6"/>
<path fill-rule="evenodd" clip-rule="evenodd" d="M77.0231 288.571L76.9902 288.513C70.3867 276.83 67.0537 264.221 67.0537 250.852C67.0537 237.542 70.4686 225.047 77.2346 213.549C83.9525 202.022 93.0821 192.819 104.518 186.076C116.037 179.173 128.611 175.695 142.045 175.695C155.546 175.695 168.128 179.096 179.578 185.915C190.92 192.669 199.942 201.887 206.545 213.42C213.307 224.924 216.705 237.465 216.705 250.852C216.705 264.529 213.327 277.332 206.57 289.066C199.959 300.631 190.875 309.903 179.442 316.763L179.412 316.781C167.963 323.599 155.381 327 141.879 327C128.393 327 115.781 323.439 104.245 316.389C92.8635 309.434 83.7633 300.144 77.0567 288.629L77.0231 288.571ZM197.422 284.244C197.483 284.137 197.545 284.031 197.606 283.924C203.394 273.876 206.315 262.962 206.369 251.182C206.369 251.072 206.37 250.962 206.37 250.852C206.37 239.276 203.448 228.528 197.606 218.606C197.582 218.565 197.558 218.523 197.534 218.482C191.809 208.509 184.061 200.613 174.29 194.794C174.243 194.767 174.197 194.739 174.151 194.712C174.138 194.704 174.124 194.696 174.111 194.688C164.348 188.916 153.659 186.03 142.045 186.03C130.52 186.03 119.814 188.981 109.929 194.882C109.916 194.89 109.903 194.897 109.891 194.905C109.86 194.923 109.83 194.941 109.799 194.96C99.9727 200.747 92.1467 208.588 86.3212 218.484C86.3134 218.497 86.3056 218.511 86.2978 218.524C86.2494 218.606 86.201 218.689 86.1528 218.772C80.3101 228.693 77.3887 239.387 77.3887 250.852C77.3887 250.962 77.389 251.072 77.3895 251.182C77.4436 262.634 80.3096 273.382 85.9875 283.428C86.1175 283.651 86.2486 283.873 86.3807 284.095C86.3928 284.115 86.4049 284.135 86.417 284.155C92.2145 293.849 99.9535 301.654 109.634 307.57C109.754 307.643 109.873 307.716 109.993 307.788C110.005 307.795 110.017 307.803 110.029 307.81C119.841 313.713 130.458 316.665 141.879 316.665C153.465 316.665 164.129 313.793 173.873 308.05C173.886 308.042 173.898 308.035 173.911 308.027C173.982 307.985 174.053 307.943 174.125 307.901C183.935 302.015 191.697 294.135 197.412 284.261C197.415 284.255 197.418 284.249 197.422 284.244ZM171.555 303.619C171.56 303.616 171.565 303.613 171.569 303.61C180.488 298.115 187.569 290.781 192.81 281.609C192.872 281.502 192.933 281.395 192.994 281.288C192.997 281.283 193 281.277 193.003 281.272C198.276 271.995 200.913 261.966 200.913 251.182C200.913 251.072 200.913 250.962 200.912 250.852C200.859 240.246 198.248 230.385 193.081 221.271C193.069 221.251 193.058 221.231 193.047 221.211C193.023 221.17 192.999 221.128 192.976 221.087C187.72 211.89 180.616 204.596 171.664 199.205C171.602 199.168 171.54 199.131 171.479 199.094C162.439 193.582 152.628 190.826 142.045 190.826C131.351 190.826 121.485 193.582 112.445 199.094C112.405 199.118 112.364 199.142 112.323 199.167C112.312 199.174 112.3 199.18 112.289 199.187C103.322 204.58 96.1535 211.88 90.7829 221.087C90.7283 221.182 90.6741 221.278 90.62 221.373C90.616 221.381 90.6119 221.388 90.6078 221.395C85.4864 230.475 82.8993 240.294 82.8464 250.852C82.8459 250.962 82.8456 251.072 82.8456 251.182C82.8456 261.811 85.355 271.708 90.3738 280.873C90.3843 280.892 90.3948 280.911 90.4053 280.93C90.5297 281.157 90.6555 281.383 90.7829 281.609C96.114 290.748 103.217 298.061 112.091 303.549C112.209 303.622 112.327 303.695 112.445 303.767C121.485 309.169 131.296 311.87 141.879 311.87C152.462 311.87 162.274 309.169 171.313 303.767C171.394 303.718 171.475 303.668 171.555 303.619ZM165.972 294.919C173.491 290.326 179.413 284.224 183.837 276.481L183.856 276.447C188.345 268.661 190.578 260.301 190.578 251.182C190.578 242.153 188.389 233.892 184.002 226.214C179.581 218.476 173.671 212.444 166.177 207.966L166.138 207.942L166.098 207.918C158.679 203.394 150.729 201.161 142.045 201.161C133.23 201.161 125.228 203.404 117.826 207.918L117.786 207.942L117.747 207.966C110.246 212.447 104.269 218.493 99.7335 226.254C95.3615 233.92 93.1806 242.169 93.1806 251.182C93.1806 260.317 95.3674 268.685 99.7467 276.464C104.284 284.219 110.268 290.326 117.787 294.919C125.204 299.342 133.169 301.534 141.879 301.534C150.59 301.534 158.554 299.342 165.972 294.919Z" fill="#444C5C"/>
<path d="M141.934 269.675C138.076 269.675 134.493 268.665 131.186 266.644C127.879 264.623 125.251 261.94 123.304 258.596C121.393 255.215 120.438 251.596 120.438 247.737C120.438 243.916 121.411 240.351 123.359 237.044C125.306 233.7 127.934 231.054 131.241 229.107C134.548 227.123 138.131 226.13 141.989 226.13C145.885 226.13 149.467 227.104 152.738 229.052C156.008 230.999 158.599 233.645 160.51 236.989C162.457 240.296 163.431 243.879 163.431 247.737C163.431 251.706 162.457 255.381 160.51 258.761C158.599 262.105 155.99 264.77 152.683 266.754C149.412 268.701 145.829 269.675 141.934 269.675ZM141.934 268.077C145.462 268.077 148.732 267.176 151.746 265.376C154.759 263.539 157.147 261.077 158.911 257.99C160.712 254.866 161.612 251.486 161.612 247.848C161.612 244.247 160.73 240.903 158.966 237.816C157.203 234.729 154.814 232.285 151.801 230.485C148.788 228.648 145.517 227.729 141.989 227.729C138.425 227.729 135.136 228.648 132.123 230.485C129.11 232.285 126.703 234.729 124.902 237.816C123.138 240.903 122.256 244.247 122.256 247.848C122.256 251.486 123.138 254.866 124.902 257.99C126.703 261.077 129.11 263.539 132.123 265.376C135.136 267.176 138.407 268.077 141.934 268.077Z" fill="#F9F3E6"/>
<path fill-rule="evenodd" clip-rule="evenodd" d="M120.305 260.291L120.305 260.291C118.104 256.397 116.993 252.194 116.993 247.737C116.993 243.301 118.131 239.135 120.386 235.303C122.626 231.461 125.669 228.393 129.481 226.145C133.32 223.844 137.512 222.685 141.99 222.685C146.49 222.685 150.684 223.819 154.501 226.092C158.282 228.343 161.289 231.416 163.49 235.26C165.744 239.095 166.876 243.275 166.876 247.737C166.876 252.296 165.75 256.564 163.498 260.475C161.294 264.33 158.266 267.421 154.455 269.708L154.446 269.714C150.629 271.986 146.435 273.12 141.935 273.12C137.439 273.12 133.235 271.933 129.39 269.583C125.596 267.264 122.563 264.168 120.327 260.33L120.305 260.291ZM160.449 258.868C160.469 258.832 160.49 258.797 160.51 258.761C162.44 255.412 163.413 251.774 163.431 247.847C163.431 247.811 163.431 247.774 163.431 247.737C163.431 243.879 162.458 240.296 160.51 236.989C160.502 236.975 160.494 236.961 160.486 236.947C158.578 233.623 155.995 230.991 152.738 229.051C152.723 229.042 152.707 229.033 152.692 229.024C152.687 229.021 152.683 229.019 152.679 229.016C149.424 227.092 145.861 226.13 141.99 226.13C138.148 226.13 134.58 227.114 131.284 229.081C131.28 229.083 131.276 229.086 131.272 229.088C131.262 229.094 131.251 229.1 131.241 229.107C127.966 231.035 125.357 233.649 123.415 236.948C123.413 236.952 123.41 236.957 123.407 236.961C123.391 236.989 123.375 237.016 123.359 237.044C121.411 240.351 120.438 243.915 120.438 247.737C120.438 247.774 120.438 247.811 120.438 247.847C120.456 251.665 121.411 255.247 123.304 258.596C123.347 258.67 123.391 258.744 123.435 258.818C123.439 258.825 123.443 258.832 123.447 258.838C125.38 262.07 127.959 264.671 131.186 266.643C131.226 266.668 131.266 266.692 131.306 266.716C131.31 266.718 131.314 266.721 131.318 266.723C134.588 268.691 138.127 269.675 141.935 269.675C145.796 269.675 149.351 268.718 152.599 266.803C152.603 266.801 152.608 266.798 152.612 266.796C152.636 266.782 152.659 266.768 152.683 266.754C155.953 264.792 158.54 262.165 160.445 258.874C160.446 258.872 160.448 258.87 160.449 258.868ZM158.912 257.989C158.932 257.954 158.952 257.918 158.973 257.883C158.974 257.881 158.975 257.879 158.976 257.877C160.734 254.785 161.612 251.442 161.612 247.847C161.612 247.811 161.612 247.774 161.612 247.737C161.594 244.202 160.724 240.915 159.002 237.877C158.998 237.87 158.994 237.864 158.99 237.857C158.982 237.843 158.975 237.829 158.967 237.816C157.215 234.75 154.847 232.319 151.863 230.522C151.842 230.509 151.822 230.497 151.801 230.485C148.788 228.647 145.517 227.729 141.99 227.729C138.425 227.729 135.136 228.647 132.123 230.485C132.11 230.493 132.096 230.501 132.083 230.509C132.079 230.511 132.075 230.513 132.071 230.516C129.082 232.313 126.693 234.747 124.902 237.816C124.884 237.847 124.866 237.879 124.848 237.911C124.847 237.914 124.845 237.916 124.844 237.918C123.137 240.945 122.275 244.218 122.257 247.737C122.257 247.774 122.257 247.811 122.257 247.847C122.257 251.39 123.093 254.689 124.766 257.744C124.77 257.751 124.773 257.757 124.777 257.763C124.818 257.839 124.86 257.914 124.902 257.989C126.679 261.036 129.047 263.474 132.005 265.303C132.044 265.327 132.084 265.352 132.123 265.376C135.136 267.176 138.407 268.076 141.935 268.076C145.462 268.076 148.733 267.176 151.746 265.376C151.773 265.359 151.8 265.343 151.827 265.326C151.828 265.325 151.83 265.324 151.831 265.323C154.804 263.492 157.164 261.047 158.912 257.989ZM127.886 239.538C126.429 242.093 125.702 244.843 125.702 247.847C125.702 250.892 126.431 253.681 127.89 256.275C129.403 258.86 131.398 260.895 133.904 262.426C136.376 263.901 139.031 264.631 141.935 264.631C144.838 264.631 147.493 263.901 149.966 262.426C152.472 260.895 154.446 258.861 155.92 256.28L155.927 256.269C157.423 253.674 158.167 250.887 158.167 247.847C158.167 244.838 157.438 242.084 155.976 239.525C154.502 236.945 152.532 234.934 150.034 233.442L150.007 233.426L150.008 233.426C147.534 231.918 144.884 231.174 141.99 231.174C139.051 231.174 136.384 231.921 133.917 233.426L133.89 233.442L133.89 233.442C131.39 234.936 129.398 236.951 127.886 239.538Z" fill="#444C5C"/>
</svg>
